<?xml version="1.0" encoding="utf-8"?>
<!-- Generator: Adobe Illustrator 16.0.4, SVG Export Plug-In . SVG Version: 6.00 Build 0)  -->
<!DOCTYPE svg PUBLIC "-//W3C//DTD SVG 1.1//EN" "http://www.w3.org/Graphics/SVG/1.1/DTD/svg11.dtd">
<svg version="1.1" id="Layer_1" xmlns="http://www.w3.org/2000/svg" xmlns:xlink="http://www.w3.org/1999/xlink" x="0px" y="0px"
	 width="1012.5px" height="256px" viewBox="0 0 1012.5 256" enable-background="new 0 0 1012.5 256" xml:space="preserve">
<path fill="#12353C" d="M1.655,36.173c-5.958,33.6,5.462,81.102,32.109,127.446c26.813,46.344,62.233,79.942,94.343,91.859V0.587
	c-53.626,0-100.632,13.903-126.783,35.585H1.655z"/>
<path fill="#EDDD3E" d="M222.119,164.141c26.813-46.344,38.068-93.846,32.441-127.446C228.408,15.178,181.734,1.109,127.942,1.109
	V256c31.945-11.916,67.53-45.516,94.343-91.859H222.119z"/>
<path fill="#FFFFFF" d="M191.334,42.297c-7.613-2.151-15.559-3.807-23.834-4.965c0,3.311,0,7.117-0.496,10.924
	c-0.662,8.276-1.656,17.048-2.814,25.655c5.297,1.655,10.262,3.807,14.068,6.124c0,5.296-0.827,11.586-2.482,17.875
	c-2.482,10.262-6.951,21.02-13.241,31.448c-5.296,10.262-12.579,19.861-20.192,27.145c-4.965,4.634-9.931,8.275-14.4,10.924
	c-4.634-2.648-9.434-6.29-14.234-10.924c-7.614-7.449-14.896-16.552-20.689-27.145c-6.124-10.428-10.593-21.186-13.241-31.448
	c-1.655-6.621-2.317-12.579-2.152-17.875c3.641-2.317,8.275-4.469,13.903-6.124c-1.159-8.607-2.152-17.379-2.814-25.655
	c0-3.972-0.331-7.613-0.497-11.089c-8.275,1.655-16.22,3.311-23.668,5.296c-11.917,3.311-22.51,7.779-30.951,12.91
	c0,9.931,1.324,21.186,4.469,33.434c4.634,19.034,13.241,39.392,24.496,58.923c11.255,19.53,24.827,37.075,38.73,50.647
	c8.938,8.771,18.207,15.723,26.482,20.523c8.772-4.966,17.71-11.586,26.813-20.523c14.068-13.738,27.475-31.448,38.73-50.647
	c11.254-19.531,19.861-39.724,24.496-58.923c3.311-12.248,4.634-23.669,4.469-33.434c-8.275-4.965-18.869-9.434-30.951-12.91V42.297
	z"/>
<path fill="#EAEAEA" d="M127.942,167.426c-4.469-2.482-9.434-6.29-14.234-10.924c-7.448-7.283-14.896-16.552-20.689-26.979
	c-5.958-10.594-10.593-21.518-13.241-31.779c-1.655-6.621-2.317-12.579-2.152-17.71c3.807-2.152,8.275-4.303,13.903-5.958
	c-1.159-8.607-2.152-17.379-2.648-25.82l-0.662-11.089c-8.275,1.655-16.22,3.311-23.668,5.296
	c-11.917,3.311-22.51,7.945-30.951,12.91c0,9.931,1.324,21.186,4.469,33.434c4.965,19.034,13.241,39.392,24.496,58.923
	c11.255,19.53,24.827,37.075,38.73,50.647c8.938,8.771,18.207,15.723,26.482,20.523v-51.31L127.942,167.426z"/>
<g>
	<path fill="#12353C" d="M307.396,108.106v-51.12h19.079c4.224,0,7.921,0.673,11.089,2.016c3.168,1.344,5.819,3.168,7.955,5.472
		c2.136,2.304,3.744,5.004,4.824,8.1c1.08,3.096,1.62,6.397,1.62,9.9c0,3.888-0.601,7.405-1.8,10.548
		c-1.2,3.145-2.916,5.832-5.148,8.064c-2.231,2.232-4.92,3.96-8.063,5.184c-3.145,1.224-6.637,1.836-10.477,1.836H307.396z
		 M339.94,82.474c0-2.256-0.301-4.308-0.9-6.156c-0.601-1.847-1.476-3.443-2.628-4.788c-1.152-1.343-2.568-2.376-4.248-3.096
		c-1.681-0.72-3.576-1.08-5.688-1.08h-7.271v30.384h7.271c2.16,0,4.08-0.383,5.761-1.152c1.68-0.767,3.083-1.836,4.212-3.204
		c1.127-1.368,1.991-2.976,2.592-4.824C339.64,86.711,339.94,84.682,339.94,82.474z"/>
	<path fill="#12353C" d="M394.948,97.738v10.368h-35.928v-51.12H394.3v10.368h-23.472v9.936h20.16v9.576h-20.16v10.872H394.948z"/>
	<path fill="#12353C" d="M423.891,56.986l12.096,36.288l11.88-36.288h12.456l-19.439,51.12h-9.864l-19.584-51.12H423.891z"/>
	<path fill="#12353C" d="M484.515,108.538c-3.647,0-6.96-0.744-9.936-2.232c-2.977-1.487-5.533-3.444-7.668-5.868
		c-2.137-2.423-3.792-5.195-4.968-8.316c-1.177-3.12-1.765-6.336-1.765-9.648c0-3.359,0.612-6.6,1.836-9.72
		c1.225-3.12,2.928-5.868,5.112-8.244c2.184-2.376,4.775-4.271,7.776-5.688c2.999-1.415,6.275-2.124,9.828-2.124
		c3.646,0,6.959,0.745,9.936,2.232c2.976,1.488,5.531,3.456,7.668,5.904c2.136,2.448,3.78,5.232,4.932,8.352
		c1.152,3.121,1.729,6.289,1.729,9.504c0,3.36-0.612,6.601-1.836,9.72c-1.224,3.121-2.916,5.868-5.076,8.244s-4.74,4.284-7.74,5.724
		S488.066,108.538,484.515,108.538z M472.203,82.618c0,1.969,0.275,3.876,0.828,5.724c0.551,1.849,1.343,3.492,2.376,4.932
		c1.031,1.44,2.327,2.592,3.888,3.456c1.56,0.864,3.349,1.296,5.364,1.296c2.063,0,3.863-0.456,5.4-1.368
		c1.535-0.911,2.818-2.099,3.852-3.564c1.031-1.463,1.8-3.12,2.304-4.968c0.504-1.847,0.756-3.731,0.756-5.652
		c0-1.968-0.276-3.876-0.827-5.724c-0.553-1.847-1.357-3.479-2.412-4.896c-1.057-1.416-2.353-2.543-3.889-3.384
		c-1.536-0.839-3.288-1.26-5.256-1.26c-2.064,0-3.864,0.444-5.399,1.332c-1.537,0.889-2.82,2.052-3.853,3.492
		c-1.032,1.44-1.812,3.084-2.34,4.932C472.467,78.814,472.203,80.699,472.203,82.618z"/>
	<path fill="#12353C" d="M537.362,108.538c-3.647,0-6.96-0.744-9.936-2.232c-2.977-1.487-5.533-3.444-7.668-5.868
		c-2.137-2.423-3.792-5.195-4.968-8.316c-1.177-3.12-1.765-6.336-1.765-9.648c0-3.359,0.612-6.6,1.836-9.72
		c1.225-3.12,2.928-5.868,5.112-8.244c2.184-2.376,4.775-4.271,7.776-5.688c2.999-1.415,6.275-2.124,9.828-2.124
		c3.646,0,6.959,0.745,9.936,2.232c2.976,1.488,5.531,3.456,7.668,5.904c2.136,2.448,3.78,5.232,4.932,8.352
		c1.152,3.121,1.729,6.289,1.729,9.504c0,3.36-0.612,6.601-1.836,9.72c-1.224,3.121-2.916,5.868-5.076,8.244s-4.74,4.284-7.74,5.724
		S540.914,108.538,537.362,108.538z M525.051,82.618c0,1.969,0.275,3.876,0.828,5.724c0.551,1.849,1.343,3.492,2.376,4.932
		c1.031,1.44,2.327,2.592,3.888,3.456c1.56,0.864,3.349,1.296,5.364,1.296c2.063,0,3.863-0.456,5.4-1.368
		c1.535-0.911,2.818-2.099,3.852-3.564c1.031-1.463,1.8-3.12,2.304-4.968c0.504-1.847,0.756-3.731,0.756-5.652
		c0-1.968-0.276-3.876-0.827-5.724c-0.553-1.847-1.357-3.479-2.412-4.896c-1.057-1.416-2.353-2.543-3.889-3.384
		c-1.536-0.839-3.288-1.26-5.256-1.26c-2.064,0-3.864,0.444-5.399,1.332c-1.537,0.889-2.82,2.052-3.853,3.492
		c-1.032,1.44-1.812,3.084-2.34,4.932C525.314,78.814,525.051,80.699,525.051,82.618z"/>
	<path fill="#12353C" d="M568.755,108.106v-51.12h23.039c2.4,0,4.62,0.504,6.66,1.512c2.04,1.008,3.804,2.329,5.292,3.96
		c1.487,1.632,2.652,3.48,3.492,5.544c0.84,2.064,1.26,4.152,1.26,6.264c0,1.584-0.192,3.108-0.575,4.572
		c-0.385,1.465-0.937,2.844-1.656,4.14s-1.597,2.46-2.628,3.492c-1.033,1.033-2.196,1.908-3.492,2.628l11.736,19.008h-13.32
		l-10.296-16.488h-7.704v16.488H568.755z M580.562,81.322h10.8c1.392,0,2.592-0.659,3.6-1.98c1.009-1.319,1.513-3.011,1.513-5.076
		c0-2.112-0.576-3.792-1.729-5.04c-1.151-1.248-2.4-1.872-3.744-1.872h-10.439V81.322z"/>
	<path fill="#12353C" d="M661.705,56.986v51.12h-11.808V87.154h-20.376v20.952h-11.808v-51.12h11.808v19.8h20.376v-19.8H661.705z"/>
	<path fill="#12353C" d="M692.953,108.538c-3.647,0-6.96-0.744-9.936-2.232c-2.977-1.487-5.533-3.444-7.668-5.868
		c-2.137-2.423-3.792-5.195-4.968-8.316c-1.177-3.12-1.765-6.336-1.765-9.648c0-3.359,0.612-6.6,1.836-9.72
		c1.225-3.12,2.928-5.868,5.112-8.244c2.184-2.376,4.775-4.271,7.776-5.688c2.999-1.415,6.275-2.124,9.828-2.124
		c3.646,0,6.959,0.745,9.936,2.232c2.976,1.488,5.531,3.456,7.668,5.904c2.136,2.448,3.78,5.232,4.932,8.352
		c1.152,3.121,1.729,6.289,1.729,9.504c0,3.36-0.612,6.601-1.836,9.72c-1.224,3.121-2.916,5.868-5.076,8.244s-4.74,4.284-7.74,5.724
		S696.505,108.538,692.953,108.538z M680.642,82.618c0,1.969,0.275,3.876,0.828,5.724c0.551,1.849,1.343,3.492,2.376,4.932
		c1.031,1.44,2.327,2.592,3.888,3.456c1.56,0.864,3.349,1.296,5.364,1.296c2.063,0,3.863-0.456,5.4-1.368
		c1.535-0.911,2.818-2.099,3.852-3.564c1.031-1.463,1.8-3.12,2.304-4.968c0.504-1.847,0.756-3.731,0.756-5.652
		c0-1.968-0.276-3.876-0.827-5.724c-0.553-1.847-1.357-3.479-2.412-4.896c-1.057-1.416-2.353-2.543-3.889-3.384
		c-1.536-0.839-3.288-1.26-5.256-1.26c-2.064,0-3.864,0.444-5.399,1.332c-1.537,0.889-2.82,2.052-3.853,3.492
		c-1.032,1.44-1.812,3.084-2.34,4.932C680.905,78.814,680.642,80.699,680.642,82.618z"/>
	<path fill="#12353C" d="M760.273,97.738v10.368h-35.928v-51.12h35.279v10.368h-23.472v9.936h20.16v9.576h-20.16v10.872H760.273z"/>
	<path fill="#12353C" d="M767.617,108.106v-51.12h19.079c4.224,0,7.921,0.673,11.089,2.016c3.168,1.344,5.819,3.168,7.955,5.472
		c2.136,2.304,3.744,5.004,4.824,8.1c1.08,3.096,1.62,6.397,1.62,9.9c0,3.888-0.601,7.405-1.8,10.548
		c-1.2,3.145-2.916,5.832-5.148,8.064c-2.231,2.232-4.92,3.96-8.063,5.184c-3.145,1.224-6.637,1.836-10.477,1.836H767.617z
		 M800.161,82.474c0-2.256-0.301-4.308-0.9-6.156c-0.601-1.847-1.476-3.443-2.628-4.788c-1.152-1.343-2.568-2.376-4.248-3.096
		c-1.681-0.72-3.576-1.08-5.688-1.08h-7.271v30.384h7.271c2.16,0,4.08-0.383,5.761-1.152c1.68-0.767,3.083-1.836,4.212-3.204
		c1.127-1.368,1.991-2.976,2.592-4.824C799.86,86.711,800.161,84.682,800.161,82.474z"/>
	<path fill="#12353C" d="M855.168,97.738v10.368H819.24v-51.12h35.279v10.368h-23.472v9.936h20.16v9.576h-20.16v10.872H855.168z"/>
	<path fill="#12353C" d="M309.7,194.506v-33.623h-5.185v-3.889h5.185v-1.008c0-4.607,0.983-8.219,2.952-10.836
		c1.967-2.615,4.655-3.924,8.063-3.924c1.487,0,2.928,0.216,4.32,0.648c1.392,0.432,2.592,1.008,3.6,1.727l-1.512,3.529
		c-0.673-0.527-1.501-0.936-2.484-1.225c-0.984-0.287-1.979-0.432-2.987-0.432c-2.305,0-4.057,0.889-5.256,2.664
		c-1.201,1.775-1.801,4.344-1.801,7.703v1.152h10.368v3.889h-10.368v33.623H309.7z"/>
	<path fill="#12353C" d="M350.379,161.314c-3.312,0.096-6.192,1.008-8.64,2.736c-2.448,1.729-4.177,4.104-5.185,7.127v23.328h-4.896
		v-37.512h4.607v9c1.392-2.879,3.264-5.135,5.616-6.768c2.352-1.631,4.871-2.447,7.56-2.447c0.384,0,0.695,0.023,0.937,0.07V161.314
		z"/>
	<path fill="#12353C" d="M371.044,195.227c-2.735,0-5.232-0.516-7.487-1.549c-2.257-1.031-4.213-2.436-5.868-4.211
		c-1.656-1.775-2.941-3.84-3.853-6.193c-0.912-2.35-1.368-4.822-1.368-7.416c0-2.639,0.469-5.135,1.404-7.486
		c0.937-2.352,2.232-4.416,3.888-6.193c1.656-1.775,3.611-3.191,5.868-4.248c2.256-1.055,4.728-1.584,7.416-1.584
		c2.688,0,5.172,0.529,7.452,1.584c2.279,1.057,4.248,2.473,5.904,4.248c1.656,1.777,2.952,3.842,3.888,6.193
		c0.937,2.352,1.404,4.848,1.404,7.486c0,2.594-0.457,5.066-1.368,7.416c-0.912,2.354-2.196,4.418-3.853,6.193
		c-1.655,1.775-3.624,3.18-5.903,4.211C376.288,194.711,373.78,195.227,371.044,195.227z M357.437,175.93
		c0,2.113,0.359,4.068,1.08,5.869c0.72,1.799,1.691,3.383,2.916,4.752c1.224,1.367,2.663,2.436,4.319,3.203
		c1.656,0.77,3.42,1.152,5.292,1.152s3.636-0.396,5.292-1.188c1.656-0.793,3.107-1.873,4.356-3.24
		c1.247-1.369,2.231-2.963,2.952-4.789c0.72-1.822,1.08-3.791,1.08-5.902c0-2.064-0.36-4.02-1.08-5.869
		c-0.721-1.848-1.705-3.455-2.952-4.824c-1.249-1.367-2.7-2.447-4.356-3.24c-1.656-0.791-3.42-1.188-5.292-1.188
		s-3.625,0.396-5.256,1.188c-1.632,0.793-3.072,1.885-4.32,3.277s-2.231,3.012-2.951,4.859
		C357.796,171.838,357.437,173.818,357.437,175.93z"/>
	<path fill="#12353C" d="M429.435,194.506h-4.896v-20.951c0-4.465-0.66-7.705-1.98-9.721s-3.348-3.023-6.084-3.023
		c-1.439,0-2.88,0.264-4.319,0.791c-1.44,0.529-2.772,1.273-3.996,2.232c-1.225,0.961-2.316,2.102-3.276,3.42
		c-0.961,1.32-1.656,2.748-2.088,4.285v22.967h-4.896v-37.512h4.464v8.496c1.535-2.736,3.731-4.943,6.588-6.623
		c2.855-1.68,5.964-2.521,9.324-2.521c2.062,0,3.815,0.385,5.256,1.152c1.439,0.77,2.592,1.85,3.456,3.24
		c0.863,1.393,1.487,3.096,1.872,5.111c0.383,2.018,0.575,4.248,0.575,6.697V194.506z"/>
	<path fill="#12353C" d="M457.516,192.707c-0.288,0.143-0.709,0.336-1.261,0.576s-1.188,0.48-1.907,0.719
		c-0.721,0.24-1.537,0.457-2.448,0.648c-0.912,0.191-1.872,0.287-2.88,0.287c-1.057,0-2.064-0.143-3.024-0.432
		c-0.961-0.287-1.8-0.73-2.52-1.332c-0.721-0.6-1.296-1.355-1.729-2.268c-0.432-0.912-0.647-1.967-0.647-3.168v-26.855h-5.185
		v-3.889h5.185v-12.672h4.896v12.672h8.64v3.889h-8.64v25.488c0.096,1.393,0.587,2.412,1.477,3.059
		c0.887,0.648,1.907,0.973,3.06,0.973c1.392,0,2.615-0.227,3.672-0.684c1.056-0.455,1.729-0.779,2.016-0.973L457.516,192.707z"/>
	<path fill="#12353C" d="M462.268,177.154v-4.535h21.024v4.535H462.268z"/>
	<path fill="#12353C" d="M509.57,195.227c-2.735,0-5.244-0.516-7.523-1.549c-2.28-1.031-4.261-2.447-5.94-4.248
		c-1.681-1.799-2.987-3.875-3.924-6.227c-0.936-2.352-1.404-4.871-1.404-7.561c0-2.639,0.469-5.123,1.404-7.453
		c0.937-2.326,2.232-4.367,3.888-6.119c1.656-1.752,3.637-3.143,5.94-4.176c2.304-1.031,4.799-1.549,7.488-1.549
		c2.735,0,5.243,0.518,7.523,1.549c2.279,1.033,4.236,2.438,5.868,4.211c1.631,1.777,2.903,3.816,3.816,6.121
		c0.911,2.305,1.367,4.752,1.367,7.344c0,0.385,0,0.768,0,1.152s-0.024,0.648-0.071,0.791h-32.112
		c0.145,2.018,0.612,3.877,1.404,5.58c0.792,1.705,1.811,3.182,3.06,4.428c1.248,1.25,2.676,2.221,4.284,2.916
		c1.607,0.697,3.323,1.045,5.148,1.045c1.199,0,2.399-0.168,3.6-0.504c1.199-0.336,2.304-0.793,3.312-1.369
		c1.009-0.574,1.92-1.283,2.736-2.123c0.815-0.84,1.44-1.764,1.872-2.771l4.248,1.152c-0.576,1.393-1.393,2.652-2.448,3.779
		c-1.056,1.129-2.28,2.113-3.672,2.951c-1.393,0.842-2.929,1.488-4.607,1.945C513.146,194.998,511.395,195.227,509.57,195.227z
		 M523.395,173.77c-0.144-2.016-0.612-3.852-1.404-5.508s-1.8-3.082-3.023-4.283c-1.224-1.199-2.641-2.135-4.248-2.809
		c-1.608-0.672-3.324-1.008-5.148-1.008s-3.553,0.336-5.184,1.008c-1.633,0.674-3.06,1.609-4.284,2.809
		c-1.224,1.201-2.208,2.641-2.952,4.32s-1.188,3.504-1.332,5.471H523.395z"/>
	<path fill="#12353C" d="M567.17,194.506h-4.896v-20.951c0-4.465-0.66-7.705-1.98-9.721s-3.348-3.023-6.084-3.023
		c-1.439,0-2.88,0.264-4.319,0.791c-1.44,0.529-2.772,1.273-3.996,2.232c-1.225,0.961-2.316,2.102-3.276,3.42
		c-0.961,1.32-1.656,2.748-2.088,4.285v22.967h-4.896v-37.512h4.464v8.496c1.535-2.736,3.731-4.943,6.588-6.623
		c2.855-1.68,5.964-2.521,9.324-2.521c2.062,0,3.815,0.385,5.256,1.152c1.439,0.77,2.592,1.85,3.456,3.24
		c0.863,1.393,1.487,3.096,1.872,5.111c0.383,2.018,0.575,4.248,0.575,6.697V194.506z"/>
	<path fill="#12353C" d="M593.018,195.227c-2.592,0-4.992-0.541-7.199-1.621c-2.209-1.08-4.104-2.506-5.688-4.283
		c-1.584-1.775-2.82-3.828-3.708-6.156c-0.889-2.328-1.332-4.764-1.332-7.309c0-2.639,0.432-5.146,1.296-7.523
		c0.864-2.375,2.052-4.451,3.564-6.229c1.512-1.773,3.312-3.178,5.399-4.211c2.088-1.031,4.38-1.549,6.876-1.549
		c3.168,0,5.977,0.828,8.425,2.484c2.447,1.656,4.367,3.66,5.76,6.012v-22.896h4.896v46.224c0,1.346,0.576,2.016,1.729,2.016v4.32
		c-0.721,0.145-1.296,0.217-1.729,0.217c-1.151,0-2.16-0.371-3.023-1.117c-0.864-0.742-1.296-1.643-1.296-2.699v-3.672
		c-1.488,2.447-3.505,4.393-6.049,5.832S595.754,195.227,593.018,195.227z M594.098,190.906c1.199,0,2.484-0.24,3.853-0.721
		c1.368-0.479,2.651-1.139,3.852-1.979c1.199-0.84,2.22-1.824,3.061-2.953c0.839-1.127,1.355-2.34,1.548-3.635v-11.594
		c-0.48-1.295-1.177-2.506-2.088-3.635c-0.913-1.127-1.957-2.125-3.132-2.988c-1.177-0.863-2.438-1.535-3.78-2.016
		c-1.345-0.48-2.664-0.721-3.96-0.721c-2.017,0-3.841,0.432-5.473,1.297c-1.632,0.863-3.036,2.004-4.212,3.42
		c-1.177,1.416-2.076,3.035-2.699,4.859c-0.625,1.824-0.937,3.697-0.937,5.615c0,2.018,0.36,3.938,1.08,5.762
		s1.703,3.42,2.952,4.787c1.247,1.367,2.724,2.461,4.428,3.275C590.293,190.5,592.129,190.906,594.098,190.906z"/>
	<path fill="#12353C" d="M656.16,195.227c-2.592,0-4.992-0.541-7.199-1.621c-2.209-1.08-4.104-2.506-5.688-4.283
		c-1.584-1.775-2.82-3.828-3.708-6.156c-0.889-2.328-1.332-4.764-1.332-7.309c0-2.639,0.432-5.146,1.296-7.523
		c0.864-2.375,2.052-4.451,3.564-6.229c1.512-1.773,3.312-3.178,5.399-4.211c2.088-1.031,4.38-1.549,6.876-1.549
		c3.168,0,5.977,0.828,8.425,2.484c2.447,1.656,4.367,3.66,5.76,6.012v-22.896h4.896v46.224c0,1.346,0.576,2.016,1.729,2.016v4.32
		c-0.721,0.145-1.296,0.217-1.729,0.217c-1.151,0-2.16-0.371-3.023-1.117c-0.864-0.742-1.296-1.643-1.296-2.699v-3.672
		c-1.488,2.447-3.505,4.393-6.049,5.832S658.896,195.227,656.16,195.227z M657.24,190.906c1.199,0,2.484-0.24,3.853-0.721
		c1.368-0.479,2.651-1.139,3.852-1.979c1.199-0.84,2.22-1.824,3.061-2.953c0.839-1.127,1.355-2.34,1.548-3.635v-11.594
		c-0.48-1.295-1.177-2.506-2.088-3.635c-0.913-1.127-1.957-2.125-3.132-2.988c-1.177-0.863-2.438-1.535-3.78-2.016
		c-1.345-0.48-2.664-0.721-3.96-0.721c-2.017,0-3.841,0.432-5.473,1.297c-1.632,0.863-3.036,2.004-4.212,3.42
		c-1.177,1.416-2.076,3.035-2.699,4.859c-0.625,1.824-0.937,3.697-0.937,5.615c0,2.018,0.36,3.938,1.08,5.762
		s1.703,3.42,2.952,4.787c1.247,1.367,2.724,2.461,4.428,3.275C653.436,190.5,655.271,190.906,657.24,190.906z"/>
	<path fill="#12353C" d="M701.736,195.227c-2.735,0-5.244-0.516-7.523-1.549c-2.28-1.031-4.261-2.447-5.94-4.248
		c-1.681-1.799-2.987-3.875-3.924-6.227c-0.936-2.352-1.404-4.871-1.404-7.561c0-2.639,0.469-5.123,1.404-7.453
		c0.937-2.326,2.232-4.367,3.888-6.119c1.656-1.752,3.637-3.143,5.94-4.176c2.304-1.031,4.799-1.549,7.488-1.549
		c2.735,0,5.243,0.518,7.523,1.549c2.279,1.033,4.236,2.438,5.868,4.211c1.631,1.777,2.903,3.816,3.816,6.121
		c0.911,2.305,1.367,4.752,1.367,7.344c0,0.385,0,0.768,0,1.152s-0.024,0.648-0.071,0.791h-32.112
		c0.145,2.018,0.612,3.877,1.404,5.58c0.792,1.705,1.811,3.182,3.06,4.428c1.248,1.25,2.676,2.221,4.284,2.916
		c1.607,0.697,3.323,1.045,5.148,1.045c1.199,0,2.399-0.168,3.6-0.504c1.199-0.336,2.304-0.793,3.312-1.369
		c1.009-0.574,1.92-1.283,2.736-2.123c0.815-0.84,1.44-1.764,1.872-2.771l4.248,1.152c-0.576,1.393-1.393,2.652-2.448,3.779
		c-1.056,1.129-2.28,2.113-3.672,2.951c-1.393,0.842-2.929,1.488-4.607,1.945C705.312,194.998,703.561,195.227,701.736,195.227z
		 M715.561,173.77c-0.144-2.016-0.612-3.852-1.404-5.508s-1.8-3.082-3.023-4.283c-1.224-1.199-2.641-2.135-4.248-2.809
		c-1.608-0.672-3.324-1.008-5.148-1.008s-3.553,0.336-5.184,1.008c-1.633,0.674-3.06,1.609-4.284,2.809
		c-1.224,1.201-2.208,2.641-2.952,4.32s-1.188,3.504-1.332,5.471H715.561z"/>
	<path fill="#12353C" d="M738.024,194.506l-15.264-37.512h5.04l12.888,32.977l12.96-32.977h4.752l-15.264,37.512H738.024z"/>
	<path fill="#12353C" d="M780.072,195.227c-2.735,0-5.244-0.516-7.523-1.549c-2.28-1.031-4.261-2.447-5.94-4.248
		c-1.681-1.799-2.987-3.875-3.924-6.227c-0.936-2.352-1.404-4.871-1.404-7.561c0-2.639,0.469-5.123,1.404-7.453
		c0.937-2.326,2.232-4.367,3.888-6.119c1.656-1.752,3.637-3.143,5.94-4.176c2.304-1.031,4.799-1.549,7.488-1.549
		c2.735,0,5.243,0.518,7.523,1.549c2.279,1.033,4.236,2.438,5.868,4.211c1.631,1.777,2.903,3.816,3.816,6.121
		c0.911,2.305,1.367,4.752,1.367,7.344c0,0.385,0,0.768,0,1.152s-0.024,0.648-0.071,0.791h-32.112
		c0.145,2.018,0.612,3.877,1.404,5.58c0.792,1.705,1.811,3.182,3.06,4.428c1.248,1.25,2.676,2.221,4.284,2.916
		c1.607,0.697,3.323,1.045,5.148,1.045c1.199,0,2.399-0.168,3.6-0.504c1.199-0.336,2.304-0.793,3.312-1.369
		c1.009-0.574,1.92-1.283,2.736-2.123c0.815-0.84,1.44-1.764,1.872-2.771l4.248,1.152c-0.576,1.393-1.393,2.652-2.448,3.779
		c-1.056,1.129-2.28,2.113-3.672,2.951c-1.393,0.842-2.929,1.488-4.607,1.945C783.647,194.998,781.896,195.227,780.072,195.227z
		 M793.896,173.77c-0.144-2.016-0.612-3.852-1.404-5.508s-1.8-3.082-3.023-4.283c-1.224-1.199-2.641-2.135-4.248-2.809
		c-1.608-0.672-3.324-1.008-5.148-1.008s-3.553,0.336-5.184,1.008c-1.633,0.674-3.06,1.609-4.284,2.809
		c-1.224,1.201-2.208,2.641-2.952,4.32s-1.188,3.504-1.332,5.471H793.896z"/>
	<path fill="#12353C" d="M806.352,141.946h4.896v44.063c0,1.393,0.384,2.484,1.152,3.277c0.768,0.791,1.848,1.188,3.24,1.188
		c0.527,0,1.151-0.072,1.872-0.217c0.72-0.143,1.392-0.334,2.016-0.576l0.864,3.961c-0.913,0.385-2.028,0.695-3.349,0.936
		s-2.46,0.359-3.42,0.359c-2.257,0-4.031-0.635-5.328-1.906c-1.296-1.271-1.943-3.061-1.943-5.365V141.946z"/>
	<path fill="#12353C" d="M841.702,195.227c-2.735,0-5.232-0.516-7.487-1.549c-2.257-1.031-4.213-2.436-5.868-4.211
		c-1.656-1.775-2.941-3.84-3.853-6.193c-0.912-2.35-1.368-4.822-1.368-7.416c0-2.639,0.469-5.135,1.404-7.486
		c0.937-2.352,2.232-4.416,3.888-6.193c1.656-1.775,3.611-3.191,5.868-4.248c2.256-1.055,4.728-1.584,7.416-1.584
		c2.688,0,5.172,0.529,7.452,1.584c2.279,1.057,4.248,2.473,5.904,4.248c1.656,1.777,2.952,3.842,3.888,6.193
		c0.937,2.352,1.404,4.848,1.404,7.486c0,2.594-0.457,5.066-1.368,7.416c-0.912,2.354-2.196,4.418-3.853,6.193
		c-1.655,1.775-3.624,3.18-5.903,4.211C846.946,194.711,844.438,195.227,841.702,195.227z M828.095,175.93
		c0,2.113,0.359,4.068,1.08,5.869c0.72,1.799,1.691,3.383,2.916,4.752c1.224,1.367,2.663,2.436,4.319,3.203
		c1.656,0.77,3.42,1.152,5.292,1.152s3.636-0.396,5.292-1.188c1.656-0.793,3.107-1.873,4.356-3.24
		c1.247-1.369,2.231-2.963,2.952-4.789c0.72-1.822,1.08-3.791,1.08-5.902c0-2.064-0.36-4.02-1.08-5.869
		c-0.721-1.848-1.705-3.455-2.952-4.824c-1.249-1.367-2.7-2.447-4.356-3.24c-1.656-0.791-3.42-1.188-5.292-1.188
		s-3.625,0.396-5.256,1.188c-1.632,0.793-3.072,1.885-4.32,3.277s-2.231,3.012-2.951,4.859
		C828.454,171.838,828.095,173.818,828.095,175.93z"/>
	<path fill="#12353C" d="M887.709,195.227c-3.168,0-5.965-0.803-8.388-2.412c-2.425-1.607-4.381-3.637-5.868-6.084v23.111h-4.896
		v-52.848h4.392v7.271c1.535-2.35,3.528-4.258,5.976-5.723c2.448-1.465,5.112-2.197,7.992-2.197c2.592,0,4.968,0.541,7.128,1.621
		s4.032,2.52,5.616,4.32c1.584,1.799,2.819,3.877,3.708,6.227c0.888,2.354,1.332,4.777,1.332,7.273c0,2.639-0.408,5.137-1.224,7.486
		c-0.817,2.354-1.98,4.418-3.492,6.193s-3.312,3.18-5.4,4.211C892.497,194.711,890.204,195.227,887.709,195.227z M886.341,190.906
		c2.017,0,3.853-0.432,5.509-1.297c1.655-0.863,3.071-2.002,4.248-3.42c1.175-1.414,2.075-3.023,2.699-4.822
		c0.624-1.801,0.937-3.66,0.937-5.58c0-2.018-0.36-3.936-1.08-5.762c-0.72-1.822-1.704-3.43-2.952-4.822
		c-1.249-1.393-2.725-2.496-4.428-3.312c-1.704-0.816-3.541-1.225-5.508-1.225c-1.249,0-2.557,0.252-3.925,0.756
		c-1.367,0.504-2.64,1.178-3.815,2.016c-1.177,0.842-2.185,1.826-3.024,2.953c-0.84,1.129-1.356,2.316-1.548,3.564v11.52
		c0.576,1.344,1.308,2.592,2.196,3.744c0.888,1.152,1.896,2.148,3.023,2.988s2.341,1.5,3.637,1.979
		C883.605,190.666,884.948,190.906,886.341,190.906z"/>
	<path fill="#12353C" d="M929.181,195.227c-2.735,0-5.244-0.516-7.523-1.549c-2.28-1.031-4.261-2.447-5.94-4.248
		c-1.681-1.799-2.987-3.875-3.924-6.227c-0.936-2.352-1.404-4.871-1.404-7.561c0-2.639,0.469-5.123,1.404-7.453
		c0.937-2.326,2.232-4.367,3.888-6.119c1.656-1.752,3.637-3.143,5.94-4.176c2.304-1.031,4.799-1.549,7.488-1.549
		c2.735,0,5.243,0.518,7.523,1.549c2.279,1.033,4.236,2.438,5.868,4.211c1.631,1.777,2.903,3.816,3.816,6.121
		c0.911,2.305,1.367,4.752,1.367,7.344c0,0.385,0,0.768,0,1.152s-0.024,0.648-0.071,0.791h-32.112
		c0.145,2.018,0.612,3.877,1.404,5.58c0.792,1.705,1.811,3.182,3.06,4.428c1.248,1.25,2.676,2.221,4.284,2.916
		c1.607,0.697,3.323,1.045,5.148,1.045c1.199,0,2.399-0.168,3.6-0.504c1.199-0.336,2.304-0.793,3.312-1.369
		c1.009-0.574,1.92-1.283,2.736-2.123c0.815-0.84,1.44-1.764,1.872-2.771l4.248,1.152c-0.576,1.393-1.393,2.652-2.448,3.779
		c-1.056,1.129-2.28,2.113-3.672,2.951c-1.393,0.842-2.929,1.488-4.607,1.945C932.756,194.998,931.005,195.227,929.181,195.227z
		 M943.005,173.77c-0.144-2.016-0.612-3.852-1.404-5.508s-1.8-3.082-3.023-4.283c-1.224-1.199-2.641-2.135-4.248-2.809
		c-1.608-0.672-3.324-1.008-5.148-1.008s-3.553,0.336-5.184,1.008c-1.633,0.674-3.06,1.609-4.284,2.809
		c-1.224,1.201-2.208,2.641-2.952,4.32s-1.188,3.504-1.332,5.471H943.005z"/>
	<path fill="#12353C" d="M973.964,161.314c-3.312,0.096-6.192,1.008-8.64,2.736c-2.448,1.729-4.177,4.104-5.185,7.127v23.328h-4.896
		v-37.512h4.607v9c1.392-2.879,3.264-5.135,5.616-6.768c2.352-1.631,4.871-2.447,7.56-2.447c0.384,0,0.695,0.023,0.937,0.07V161.314
		z"/>
	<path fill="#12353C" d="M992.973,195.227c-2.929,0-5.785-0.48-8.568-1.439c-2.784-0.961-5.185-2.352-7.2-4.178l2.232-3.311
		c2.111,1.727,4.259,3.023,6.443,3.887c2.184,0.865,4.524,1.297,7.021,1.297c3.023,0,5.436-0.611,7.235-1.836
		c1.801-1.225,2.7-2.963,2.7-5.221c0-1.055-0.24-1.932-0.72-2.627c-0.48-0.695-1.188-1.309-2.124-1.836s-2.112-0.996-3.528-1.404
		s-3.06-0.828-4.932-1.26c-2.16-0.527-4.032-1.057-5.616-1.584s-2.893-1.127-3.924-1.801c-1.033-0.672-1.8-1.5-2.304-2.484
		c-0.504-0.982-0.756-2.219-0.756-3.707c0-1.873,0.371-3.527,1.115-4.969c0.744-1.439,1.752-2.627,3.024-3.564
		c1.271-0.936,2.76-1.643,4.464-2.123c1.703-0.479,3.516-0.721,5.437-0.721c2.88,0,5.495,0.469,7.848,1.404
		c2.352,0.936,4.248,2.172,5.688,3.709l-2.376,2.879c-1.393-1.439-3.084-2.52-5.075-3.24c-1.993-0.719-4.068-1.08-6.229-1.08
		c-1.296,0-2.496,0.133-3.6,0.396c-1.105,0.266-2.077,0.684-2.916,1.26c-0.841,0.576-1.501,1.309-1.98,2.197
		c-0.48,0.889-0.72,1.932-0.72,3.131c0,1.008,0.168,1.824,0.504,2.449c0.335,0.623,0.888,1.164,1.656,1.619
		c0.767,0.457,1.739,0.863,2.916,1.225c1.176,0.359,2.603,0.732,4.284,1.115c2.399,0.576,4.511,1.152,6.336,1.729
		c1.823,0.576,3.348,1.248,4.571,2.016c1.225,0.768,2.148,1.705,2.772,2.809c0.623,1.104,0.936,2.447,0.936,4.031
		c0,3.457-1.32,6.191-3.96,8.209C1000.988,194.219,997.437,195.227,992.973,195.227z"/>
</g>
</svg>
