<?xml version="1.0" encoding="utf-8"?>
<!-- Generator: Adobe Illustrator 16.0.4, SVG Export Plug-In . SVG Version: 6.00 Build 0)  -->
<!DOCTYPE svg PUBLIC "-//W3C//DTD SVG 1.1//EN" "http://www.w3.org/Graphics/SVG/1.1/DTD/svg11.dtd">
<svg version="1.1" id="Layer_1" xmlns="http://www.w3.org/2000/svg" xmlns:xlink="http://www.w3.org/1999/xlink" x="0px" y="0px"
	 width="200px" height="200px" viewBox="-67.99 -68.492 200 200" enable-background="new -67.99 -68.492 200 200"
	 xml:space="preserve">
<path fill="#12353C" d="M-45.466-24.803c-3.652,20.597,3.348,49.717,19.682,78.125c16.438,28.409,38.151,49.006,57.834,56.311
	V-46.616c-32.873,0-61.688,8.523-77.719,21.813H-45.466z"/>
<path fill="#EDDD3E" d="M89.681,53.322c16.437-28.408,23.336-57.528,19.885-78.125C93.536-37.992,64.925-46.616,31.949-46.616
	v156.249c19.58-7.305,41.396-27.901,57.833-56.311H89.681z"/>
<path fill="#FFFFFF" d="M70.808-21.049c-4.668-1.318-9.537-2.334-14.609-3.044c0,2.028,0,4.363-0.305,6.696
	c-0.408,5.074-1.016,10.451-1.725,15.728c3.244,1.014,6.29,2.333,8.625,3.754c0,3.247-0.509,7.102-1.523,10.957
	c-1.523,6.29-4.262,12.887-8.116,19.277c-3.247,6.293-7.712,12.177-12.379,16.642c-3.044,2.84-6.089,5.07-8.826,6.695
	c-2.842-1.625-5.784-3.855-8.726-6.695c-4.667-4.567-9.133-10.146-12.684-16.642c-3.754-6.391-6.493-12.987-8.116-19.277
	C1.409,8.983,1.003,5.33,1.104,2.085c2.231-1.421,5.074-2.74,8.522-3.754c-0.71-5.276-1.319-10.653-1.726-15.728
	c0-2.435-0.201-4.668-0.303-6.797c-5.073,1.015-9.943,2.029-14.51,3.246c-7.305,2.029-13.798,4.769-18.972,7.914
	c0,6.088,0.811,12.987,2.737,20.495c2.842,11.669,8.118,24.147,15.017,36.118c6.899,11.973,15.22,22.728,23.742,31.047
	c5.479,5.381,11.161,9.644,16.233,12.582c5.376-3.041,10.857-7.099,16.438-12.582c8.622-8.42,16.841-19.273,23.739-31.047
	c6.9-11.971,12.178-24.349,15.018-36.118c2.029-7.508,2.842-14.51,2.74-20.495c-5.074-3.043-11.568-5.783-18.975-7.914V-21.049z"/>
<path fill="#EAEAEA" d="M31.949,55.656c-2.74-1.522-5.784-3.855-8.726-6.695c-4.567-4.465-9.133-10.146-12.684-16.539
	c-3.652-6.493-6.493-13.19-8.116-19.48C1.409,8.883,1.003,5.229,1.104,2.085c2.334-1.32,5.074-2.639,8.522-3.652
	c-0.71-5.276-1.319-10.654-1.623-15.828l-0.405-6.798c-5.073,1.015-9.943,2.029-14.51,3.246c-7.305,2.029-13.798,4.871-18.972,7.914
	c0,6.088,0.811,12.987,2.737,20.495c3.044,11.669,8.118,24.148,15.017,36.118c6.899,11.973,15.22,22.728,23.742,31.047
	c5.479,5.381,11.161,9.644,16.233,12.582V55.757L31.949,55.656z"/>
</svg>
